<?xml version="1.0" encoding="utf-8"?>
<!-- Generator: Adobe Illustrator 24.1.3, SVG Export Plug-In . SVG Version: 6.00 Build 0)  -->
<svg version="1.1" id="Layer_1" xmlns="http://www.w3.org/2000/svg" xmlns:xlink="http://www.w3.org/1999/xlink" x="0px" y="0px"
	 viewBox="0 0 400.9 168.8" style="enable-background:new 0 0 400.9 168.8;" xml:space="preserve">
<style type="text/css">
	.st0{fill:#D291BC;stroke:#262626;stroke-miterlimit:10;}
	.st1{stroke:#262626;stroke-miterlimit:10;}
	.st2{fill:#FFCBCB;stroke:#262626;stroke-miterlimit:10;}
	.st3{fill:#FCF876;stroke:#262626;stroke-miterlimit:10;}
	.st4{fill:#E6E6E6;stroke:#262626;stroke-miterlimit:10;}
	.st5{fill:#E4E4E4;stroke:#262626;stroke-miterlimit:10;}
	.st6{fill:#3797A4;stroke:#262626;stroke-miterlimit:10;}
	.st7{fill:#8CCBBE;stroke:#262626;stroke-miterlimit:10;}
	.st8{fill:#FAFAF4;stroke:#262626;stroke-miterlimit:10;}
	.st9{fill:#FACBCB;stroke:#262626;stroke-miterlimit:10;}
	.st10{fill:#AACFCF;stroke:#262626;stroke-miterlimit:10;}
	.st11{fill-rule:evenodd;clip-rule:evenodd;fill:#F96D80;stroke:#262626;stroke-miterlimit:10;}
	.st12{fill:#679B9B;}
	.st13{fill:#FFCBCB;}
	.st14{fill:#FFFFFF;}
	.st15{fill:url(#SVGID_1_);stroke:#262626;stroke-miterlimit:10;}
	.st16{fill:#81B9A8;stroke:#262626;stroke-miterlimit:10;}
	.st17{fill:#FFFFFF;stroke:#262626;stroke-miterlimit:10;}
	.st18{fill:#FCF876;}
	.st19{fill:#E4E4E4;}
	.st20{fill:#3797A4;}
	.st21{fill:#AACFCF;}
</style>
<g>
	<g id="_Alphabet_n_">
		<g>
			<path class="st0" d="M160.3,33.5c5.7,2.3,9.8,8.2,10.2,15.3v12.7c0,3.2-2.4,5.8-5.2,5.8s-5-2.6-5-5.8l0,0V49.8l0,0
				c0-6.4-4.6-11.5-10.2-11.6l0,0c-5.4,0-9.9,4.9-10.2,10.9v-0.3c0.4-7.1,4.5-13.1,10.2-15.3c1.1-0.5,2.3-0.8,3.5-0.9h3.2
				C158.1,32.7,159.2,33,160.3,33.5z"/>
			<path class="st1" d="M165.3,67.7c-3,0-5.4-2.7-5.4-6.2V49.8c0-6.2-4.4-11.2-9.8-11.2c-5.2,0-9.5,4.6-9.8,10.6h-0.7v-0.4
				c0.4-7.2,4.5-13.3,10.4-15.7c1.1-0.5,2.3-0.8,3.6-0.9h3.2c1.2,0.1,2.5,0.5,3.6,0.9c6,2.4,10,8.6,10.4,15.7v12.7
				C170.9,64.9,168.4,67.7,165.3,67.7z M150.1,37.9c5.8,0,10.6,5.4,10.6,12v11.7c0,3,2,5.4,4.6,5.4c2.8-0.2,4.9-2.6,4.8-5.4V48.8
				c-0.4-6.8-4.3-12.7-9.9-14.9c-1.1-0.4-2.2-0.7-3.4-0.9h-3.2c-1.2,0.1-2.3,0.4-3.4,0.9c-3.9,1.7-7,4.8-8.5,8.8
				C143.5,39.7,146.7,37.9,150.1,37.9z"/>
		</g>
		<g>
			<path class="st2" d="M150.2,37.9c5.6,0,10.2,5.2,10.2,11.6c0-3.2-2.3-5.8-5.1-5.8s-5.1,2.6-5.1,5.8v12.1l0,0
				c0,3.2-2.3,5.8-5.1,5.8s-5.1-2.6-5.1-5.8l0,0V48.8C140.3,42.7,144.7,37.9,150.2,37.9L150.2,37.9z"/>
			<path class="st1" d="M145.1,67.7c-3,0-5.4-2.8-5.4-6.2V48.8c0.3-6.4,4.9-11.4,10.5-11.4c5.8,0,10.6,5.4,10.6,12h-0.7
				c0-3-2.1-5.4-4.7-5.4s-4.7,2.4-4.7,5.4v12C150.5,64.9,148.1,67.7,145.1,67.7z M150.2,38.3c-5.2,0-9.5,4.6-9.8,10.6v12.7
				c0,3,2.1,5.4,4.7,5.4s4.7-2.4,4.7-5.4V49.5c0-3.4,2.4-6.2,5.4-6.2c1.6,0,3,0.8,4,2C157.8,41.2,154.2,38.3,150.2,38.3L150.2,38.3z
				"/>
		</g>
	</g>
	<g id="_Alphabet_g_">
		<g>
			<path class="st3" d="M154.3,124c2,6.4,7.2,11.1,13.5,11.6h1.8l0.7-0.1c2.8,0,5.1-2.6,5.1-5.8s-2.3-5.7-5.1-5.7h-1.6
				c-5.6,0-10.2-5.2-10.2-11.6l0,0c0-6.2,4.3-11.2,9.6-11.5h-0.4c-6.3,0.4-11.5,5.1-13.5,11.5c-0.4,1.3-0.7,2.6-0.8,4v3.6
				C153.7,121.4,153.9,122.7,154.3,124z"/>
			<path class="st1" d="M169.7,135.9h-1.8c-6.3-0.4-11.8-5.1-13.9-11.8c-0.4-1.3-0.7-2.6-0.8-4v-3.7c0.1-1.4,0.4-2.8,0.8-4.1
				c2.1-6.8,7.5-11.4,13.8-11.8h0.4v0.8c-5.2,0.3-9.3,5.2-9.3,11.1c0,6.1,4.4,11.1,9.8,11.1h1.6c3,0,5.4,2.7,5.4,6.1
				s-2.4,6.2-5.4,6.2L169.7,135.9z M162.4,102.8c-3.8,2.1-6.5,5.6-7.7,9.7c-0.4,1.3-0.7,2.5-0.8,3.9v3.6c0.1,1.3,0.4,2.6,0.8,3.8
				c2,6.5,7.2,10.9,13.2,11.3h1.8l0.7-0.1c2.6,0,4.8-2.4,4.8-5.4s-2.1-5.3-4.7-5.3h-1.8c-5.8,0-10.5-5.4-10.5-12
				C158.1,108.7,159.7,105.2,162.4,102.8L162.4,102.8z"/>
		</g>
		<g>
			<path class="st4" d="M186.8,142.1c0-3.2-2.3-5.8-5.1-5.8s-5.1,2.6-5.1,5.8s2.3,5.8,5.1,5.8S186.8,145.2,186.8,142.1z"/>
			<path class="st1" d="M181.7,148.2c-3,0-5.4-2.8-5.4-6.2s2.4-6.2,5.4-6.2s5.4,2.8,5.4,6.2S184.7,148.2,181.7,148.2z M181.7,136.7
				c-2.6,0-4.7,2.4-4.7,5.4s2.1,5.4,4.7,5.4s4.7-2.4,4.7-5.4S184.3,136.7,181.7,136.7z"/>
		</g>
		<g>
			<path class="st5" d="M171.5,148.2c-2.8,0-5.1-2.6-5.1-5.8V141l0,0c-0.1-3-2.4-5.5-5.1-5.5s-5.1,2.6-5.1,5.8l0,0v1.7
				c0.3,6.1,4.7,11,10.2,11l0,0c5.6,0,10.2-5.2,10.2-11.5C176.6,145.6,174.3,148.2,171.5,148.2z"/>
			<path class="st1" d="M166.4,154.4L166.4,154.4c-5.6,0-10.2-5-10.5-11.3v-1.7c0-3.4,2.4-6.2,5.4-6.2c2.8,0,5.2,2.5,5.4,5.6l0,0
				v0.2v1.4c0,3,2.1,5.4,4.7,5.4s4.7-2.4,4.7-5.4h0.7C176.9,149,172.2,154.4,166.4,154.4z M161.3,136c-2.6,0-4.7,2.4-4.7,5.4v1.7
				c0.3,5.9,4.6,10.5,9.8,10.5l0,0c4.1,0,7.6-2.9,9.1-7c-1,1.2-2.4,2-4,2c-3,0-5.4-2.8-5.4-6.2v-1.2V141
				C165.9,138.2,163.8,136,161.3,136L161.3,136z"/>
		</g>
		<g>
			<path class="st6" d="M186.8,106.6c0-3.2-2.3-5.8-5.1-5.8h-13.8c-5.4,0.3-9.6,5.4-9.6,11.5l0,0c0,6.4,4.6,11.6,10.2,11.6
				c-2.8,0-5.1-2.6-5.1-5.8c0-3.2,2.3-5.8,5.1-5.8h6.4c1,0.1,1.8,1,1.8,2h1.5v-2h3.6C184.5,112.4,186.8,109.8,186.8,106.6
				L186.8,106.6z"/>
			<path class="st1" d="M168.4,124.4c-5.8,0-10.5-5.4-10.5-12c0-6.4,4.4-11.6,10-12h3.6h10.6c2.8,0.2,5.1,2.9,5.1,6.2
				c0,3.3-2.4,6.2-5.4,6.2h-3.2v2h-2.2v-0.4c0-0.8-0.6-1.5-1.4-1.6h-6.4c-2.6,0-4.7,2.4-4.7,5.4s2.1,5.4,4.7,5.4L168.4,124.4z
				 M167.9,101.3c-5.2,0.3-9.3,5.2-9.3,11.1c-0.1,4.3,2.3,8.4,6.1,10.3c-1.1-1.2-1.8-2.9-1.8-4.5c0-3.4,2.4-6.2,5.4-6.2h6.4
				c1.1,0.1,2,0.9,2.1,2h0.8v-2h3.9c2.6,0,4.7-2.4,4.7-5.4s-2.1-5.4-4.7-5.4h-13.6V101.3z"/>
		</g>
		<g>
			<path class="st7" d="M186.8,106.4L186.8,106.4c0-0.2,0-0.2,0-0.3l0,0v-0.3c0,0,0,0,0-0.1v-0.2l0,0c0-0.1,0-0.2-0.1-0.2
				c0,0,0,0,0-0.1s0-0.1-0.1-0.2c0,0,0,0,0-0.1s0-0.1-0.1-0.2s0,0,0,0c0-0.1-0.1-0.1-0.1-0.2v-0.1l-0.1-0.2l0,0c0-0.1,0-0.1-0.1-0.2
				v-0.1l-0.1-0.2l0,0v-0.1c-0.1-0.1-0.2-0.3-0.3-0.4l0,0l-0.1-0.2l0,0c-0.1-0.1-0.1-0.2-0.2-0.2l0,0l-0.2-0.2l0,0l-0.2-0.2l0,0
				c-0.1-0.1-0.1-0.1-0.2-0.2l0,0l-0.2-0.1l0,0l-0.2-0.1l0,0l-0.6-0.4c0,0,0,0-0.1,0l-0.2-0.1h-0.1l-0.2-0.1h0.4l-0.2-0.1h-0.1
				l-0.2-0.1h-0.1h-0.2h-0.1h-0.2h0.1h-0.2h-0.1h-0.2h-0.1h-0.2h-10.2c2.7,0.1,4.9,2.7,4.9,5.8v35.8l0,0c0,6.4-4.6,11.6-10.2,11.6
				l0,0c-5.4,0-9.9-4.9-10.2-11v0.4c0.4,7.1,4.5,13.1,10.2,15.3c1.1,0.4,2.3,0.7,3.5,0.9h3.2c1.2-0.1,2.4-0.4,3.5-0.9
				c5.7-2.3,9.8-8.2,10.2-15.3v-1.5l0,0L186.8,106.4L186.8,106.4z"/>
			<path class="st1" d="M173.1,160.1h-3.2c-1.2-0.1-2.5-0.5-3.6-0.9c-5.9-2.4-10-8.5-10.4-15.7v-0.4h0.7c0.3,5.9,4.6,10.6,9.8,10.6
				c5.4,0,9.8-5,9.8-11.1v-35.8c0.2-2.7-1.8-5.1-4.5-5.4v-0.8H182l1.2,0.2l1.4,0.7l0.2,0.2l0.2,0.2l0.4,0.4l0.2,0.2l0.2,0.3l0.1,0.1
				c0.1,0.2,0.2,0.3,0.3,0.5l0.3,0.6c0.1,0.1,0.1,0.2,0.1,0.3l0.3,0.8c0,0.1,0.1,0.2,0.1,0.3s0,0.2,0.1,0.3l0.1,1v36.8
				c-0.4,7.2-4.5,13.3-10.4,15.7C175.5,159.6,174.3,160,173.1,160.1L173.1,160.1z M156.8,147.5c1.4,4.1,5.8,9.3,9.7,10.9
				c1.1,0.4,2.2,0.7,3.4,0.9h3.1c1.2-0.1,2.3-0.4,3.4-0.9c5.7-2.3,9.6-8.2,9.9-15v-1.8l0,0v-35.7l-0.1-0.8V105l0,0l-0.1-0.4
				c0-0.1-0.1-0.2-0.1-0.3l-0.2-0.5c-0.1-0.2-0.2-0.3-0.3-0.5l-0.1-0.2l-0.2-0.2l-0.2-0.2l-0.4-0.4l-0.2-0.2l-0.4-0.3l0,0l-0.1-0.1
				l-0.1-0.1h-0.1l0,0l-0.1-0.1l-0.1-0.1l0,0l-0.5-0.2h-0.1l0,0l-0.7-0.1l0,0h-0.1h-8c1.7,1.2,2.8,3.2,2.7,5.4v35.8
				c0,6.6-4.7,12-10.5,12C163,154.4,157.9,148,156.8,147.5z"/>
		</g>
	</g>
	<g id="_Alphabet_l_">
		<g>
			<path class="st0" d="M75.4,54H67c-1-0.1-1.8-1-1.8-2h-1.5v2h-3.6c-2.8,0-5.1,2.6-5.1,5.8s2.3,5.8,5.1,5.8h15.3c2.8,0,5-2.6,5-5.8
				S78.2,54,75.4,54z"/>
			<path class="st1" d="M75.4,66H60.1c-3,0-5.4-2.8-5.4-6.2s2.4-6.2,5.4-6.2h3.2v-2h2.2V52c0,0.8,0.6,1.5,1.4,1.6h8.9
				c2.8,0.3,4.9,2.9,4.9,6.2C80.8,63.2,78.4,65.9,75.4,66L75.4,66z M60.1,54.4c-2.6,0-4.7,2.4-4.7,5.4s2.1,5.4,4.7,5.4h10.2l0,0h5.1
				c2.6,0,4.7-2.4,4.7-5.4c0-2.9-2-5.3-4.5-5.4H67c-1.1-0.1-2-0.9-2.1-2h-0.8v2H60.1z"/>
		</g>
		<g>
			<path class="st2" d="M65.2,59.8v-42c0-3.2-2.3-5.8-5.1-5.8S55,14.6,55,17.8v42c0,0.1,0,0.2,0,0.3v0.1c0,0.1,0,0.1,0,0.2l0,0v0.3
				c0,0,0,0,0,0.1V61l0,0c0,0.1,0,0.2,0,0.2s0,0,0,0.1s0,0.1,0,0.2s0,0.1,0,0.1c0,0.1,0,0.2,0.1,0.2l0,0l0.1,0.2c0,0,0,0,0,0.1
				l0.1,0.2l0,0c0,0.1,0,0.1,0.1,0.2v0.1c0,0.1,0.1,0.1,0.1,0.2l0,0v0.1c0.1,0.2,0.2,0.3,0.3,0.4l0,0l0.1,0.2l0,0l0.2,0.2l0,0
				l0.2,0.2l0,0l0.2,0.2l0,0l0.2,0.2l0,0l0.2,0.1l0,0c0.1,0,0.1,0.1,0.2,0.1l0,0l0.2,0.1c0,0,0,0,0.1,0l0.2,0.1h0.1l0.2,0.1H58
				l0.2,0.1h0.1l0.2,0.1h0.1c0.1,0,0.1,0,0.2,0.1h0.1h0.2h0.1h0.2h0.1h0.2h0.1H60l10.3,0.3C67.3,65.8,65.2,62.9,65.2,59.8z"/>
			<path class="st1" d="M60.1,66h-0.3l-1.1-0.2l-0.8-0.3l-0.3-0.1l-0.3-0.2L57.1,65l-0.2-0.2l-0.2-0.2l-0.2-0.2l-0.2-0.2v-0.1
				c-0.1,0-0.1-0.1-0.1-0.2L56,63.6l-0.2-0.2c-0.1-0.2-0.2-0.3-0.3-0.5l-0.2-0.3c-0.1-0.1-0.1-0.2-0.1-0.3l-0.4-1.1l-0.1-0.3
				c0-0.1,0-0.2,0-0.3s0-0.2,0-0.4v-0.4v-42c-0.5-3.6,2.8-6.2,5.4-6.2c3,0,5.4,2.8,5.4,6.2v42c0,2.9,2,5.2,4.5,5.4V66H60.1z
				 M58.6,64.9L59,65h0.1l0,0l0.7,0.1c0.1,0,0.2,0,0.3,0h7.4c-1.7-1.2-2.8-3.2-2.7-5.4v-42c0-3-2.1-5.4-4.7-5.4s-4.7,2.4-4.7,5.4V60
				l0,0l-0.2,0.1l0.2,0.2c0,0.1,0,0.2,0,0.3v0.2c0,0.1,0,0.2,0.1,0.3l0.3,1c0,0.1,0.1,0.1,0.1,0.2l0.1,0.2l0.3,0.5l0.1,0.2l0.2,0.2
				l0.2,0.2c0.1,0.1,0.1,0.1,0.2,0.2c0.1,0.1,0.1,0.1,0.2,0.2l0.2,0.2l0.2,0.2l0.2,0.1l0.2,0.1l0.2,0.1L58.6,64.9L58.6,64.9
				L58.6,64.9z"/>
		</g>
	</g>
	<g id="_Alphabet_t_">
		<g>
			<path class="st7" d="M82.2,123.9h-3.4c-1-0.1-1.8-1-1.8-2h-1.5v2h-3.6c-2.8,0-5.1,2.6-5.1,5.8s2.3,5.8,5.1,5.8h10.3
				c2.8,0,5-2.6,5-5.8S85,123.9,82.2,123.9z"/>
			<path class="st1" d="M82.2,135.8H71.9c-3,0-5.4-2.8-5.4-6.2s2.4-6.2,5.4-6.2h3.2v-2h2.2v0.4c0,0.8,0.6,1.5,1.4,1.6h3.8
				c2.9,0.2,5.1,2.9,5.1,6.2C87.7,132.9,85.2,135.8,82.2,135.8L82.2,135.8z M71.9,124.3c-2.6,0-4.7,2.4-4.7,5.4s2.1,5.4,4.7,5.4
				h10.3l0.1,0.4v-0.4c2.6,0,4.7-2.4,4.7-5.4c0.1-2.5-1.5-4.7-3.9-5.3l-0.9-0.1h-3.4c-1.1-0.1-2-0.9-2.1-2h-0.8v2H71.9z"/>
		</g>
		<g>
			<path class="st8" d="M77,129.6v-42H66.8v42.3c0,0,0,0,0,0.1s0,0.2,0,0.2l0,0c0,0.1,0,0.2,0,0.3v0.1v0.2l0,0c0,0.1,0,0.2,0,0.2
				c0,0.1,0,0,0,0.1s0,0.1,0,0.2c0,0,0,0,0,0.1s0,0.2,0.1,0.2l0,0c0,0.1,0,0.1,0.1,0.2c0,0,0,0,0,0.1s0.1,0.2,0.1,0.2l0,0l0.1,0.2
				l0,0c0,0.1,0.1,0.1,0.1,0.2l0,0v0.1l0.3,0.4l0,0l0.1,0.2l0,0l0.6,0.4l0,0c0.1,0.1,0.1,0.1,0.2,0.2l0,0l0.2,0.2l0,0l0.2,0.2l0,0
				l0.2,0.1l0,0l0.2,0.1l0,0l0.2,0.1h0.1l0.2,0.1h0.1l0.2,0.1h0.1l0.2,0.1h0.1l0.2,0.1c0,0,0,0,0.1,0H71h0.1h0.2h0.1h0.2h0.1h0.2H72
				h10.5C79.2,135.3,77,132.8,77,129.6z"/>
			<path class="st1" d="M71.9,135.8h-0.3h-0.3l-0.4-0.1l-0.1-0.4l0.1-0.4l0.7,0.1h7.8c-1.7-1.2-2.8-3.2-2.7-5.4V87.9h-9.4v42.2
				c0,0,0,0.1,0,0.2v0.3c0,0.1,0,0.2,0.1,0.3c0,0.1,0,0.2,0,0.2l0.4,1c0.1,0.1,0.1,0.2,0.1,0.2l0.1,0.1c0.1,0.1,0.1,0.3,0.2,0.4
				l0.1,0.2l0.2,0.2l0,0c0,0.1,0.1,0.1,0.2,0.2l0.2,0.2l0.2,0.2l0.2,0.2l0.2,0.2l0.2,0.1l0.4,0.2l0.1,0.1l0,0l0.3,0.2h0.1l0,0
				l0.3,0.1v0.4l-0.1,0.4l-0.3-0.1l-0.3-0.1l-1-0.5l-0.2-0.2l-0.2-0.2l-0.2-0.2l-0.2-0.2l-0.2-0.2l-0.2-0.2v0
				c-0.1-0.1-0.1-0.2-0.2-0.3l-0.1-0.2c0,0,0,0,0-0.1l0,0c-0.1-0.1-0.2-0.2-0.2-0.4l0,0c0-0.1-0.1-0.1-0.1-0.2l-0.4-1.1
				c0-0.1,0-0.2-0.1-0.2c0-0.1-0.1-0.2-0.1-0.3v-0.4c0-0.1,0-0.2,0-0.3v-0.6V87.3h10.9v42.4c0,2.9,2,5.2,4.5,5.4v0.8L71.9,135.8z"/>
		</g>
		<g>
			<path class="st6" d="M82.2,93.8h-3.4c-1-0.1-1.8-1-1.8-2h-1.5v2h-3.6c-2.8,0-5.1,2.6-5.1,5.8s2.3,5.8,5.1,5.8h10.3
				c2.8,0,5-2.6,5-5.8S85,93.8,82.2,93.8z"/>
			<path class="st1" d="M82.2,105.8H71.5c-2.8-0.2-5.1-2.9-5.1-6.2c0-3.3,2.4-6.2,5.4-6.2H75v-2h2.2v0.4c-0.1,0.8,0.6,1.5,1.4,1.6
				h3.8c2.9,0.2,5.1,2.9,5.1,6.2S85.2,105.8,82.2,105.8L82.2,105.8z M72.2,105h10l0.1,0.4V105c2.6,0,4.7-2.4,4.7-5.4
				c0-2.9-2-5.2-4.5-5.4h-3.6c-1.1-0.1-2-0.9-2.1-2H76v2h-4c-2.6,0-4.7,2.4-4.7,5.4s2.1,5.4,4.7,5.4H72.2z"/>
		</g>
		<g>
			<path class="st3" d="M77,99.6v-12l0,0c0-3.2-2.3-5.8-5.1-5.8s-5.1,2.6-5.1,5.8l0,0v12.3c0,0,0,0,0,0.1s0,0.2,0,0.2l0,0
				c0,0.1,0,0.2,0,0.2v0.1v0.2l0,0c0,0.1,0,0.2,0,0.2s0,0,0,0.1s0,0.1,0,0.2c0,0,0,0,0,0.1s0,0.1,0.1,0.2l0,0c0,0.1,0,0.1,0.1,0.2
				c0,0,0,0,0,0.1s0.1,0.2,0.1,0.2l0,0c0,0.1,0.1,0.1,0.1,0.2c0,0,0,0,0,0.1s0.1,0.1,0.1,0.2l0,0v0.1l0.3,0.4l0,0l0.1,0.1l0,0
				l0.2,0.2l0,0c0.1,0.1,0.1,0.1,0.2,0.2l0,0l0.2,0.2l0,0l0.2,0.2l0,0l0.2,0.1l0,0l0.2,0.1l0,0l0.2,0.1h0.1l0.2,0.1h0.1
				c0.1,0,0.1,0.1,0.2,0.1h0.1l0.2,0.1h0.1l0.2,0.1c0,0,0,0,0.1,0h0.2h0.1h0.2H71h0.2h0.1h0.2h0.1h0.2h10.3
				C79.2,105.3,77,102.7,77,99.6z"/>
			<path class="st1" d="M71.9,105.8h-0.4h-0.2h-0.1H71l-0.4-0.1h-0.2l-0.3-0.1H70l0,0l-0.1-0.1h-0.1l-0.2-0.1l-0.5-0.3l-0.2-0.2
				l-0.2-0.1l-0.2-0.1l-0.2-0.2l-0.2-0.2l0,0l-0.2-0.2c-0.1-0.1-0.1-0.2-0.2-0.3l-0.1-0.1c0,0,0-0.1-0.1-0.1l0,0
				c-0.1-0.1-0.2-0.3-0.3-0.5l-0.1-0.1c0-0.1-0.1-0.1-0.1-0.2l-0.4-1.1c0-0.1,0-0.2-0.1-0.2c0-0.1-0.1-0.2-0.1-0.3v-0.4
				c0-0.1,0-0.2,0-0.3v-0.7V87.6c0-3.4,2.4-6.2,5.4-6.2s5.5,2.8,5.5,6.2v12c-0.2,2.7,1.8,5.1,4.5,5.4v0.8L71.9,105.8L71.9,105.8z
				 M70.9,104.9h0.2h0.2h0.1h0.3h7.7c-1.7-1.2-2.8-3.2-2.7-5.4V87.6c0-3-2.1-5.4-4.7-5.4c-2.6,0-4.7,2.4-4.7,5.4v12.6
				c0,0,0,0.1,0,0.2v0.3c0,0.1,0,0.2,0.1,0.3c0,0.1,0,0.2,0,0.2v0.1l0,0l0.3,0.9c0.1,0.1,0.1,0.2,0.1,0.2l0.1,0.1l0.2,0.4l0.1,0.2
				c0.1,0.1,0.1,0.2,0.2,0.2c0,0.1,0.1,0.1,0.2,0.2l0,0l0.1,0.1l0.2,0.2c0.1,0.1,0.1,0.1,0.2,0.1l0.2,0.2l0.2,0.1l0.9,0.5h0.1h0.1
				h0.1l0,0L70.9,104.9z"/>
		</g>
	</g>
	<g id="_Alphabet_a_">
		<g>
			<path class="st9" d="M13.9,52.9c2,6.4,7.2,11.1,13.5,11.6h2.5c2.8,0,5.1-2.7,5.1-5.9s-2.3-5.7-5.1-5.7h-1.6
				c-5.6,0-10.2-5.2-10.2-11.5l0,0c0-6.2,4.3-11.2,9.6-11.5h-0.4C21,30.3,15.8,35,13.8,41.5c-0.4,1.3-0.7,2.6-0.8,4v3.6
				C13.2,50.3,13.5,51.6,13.9,52.9z"/>
			<path class="st1" d="M29.9,64.8h-2.5c-6.3-0.4-11.8-5.1-13.9-11.8c-0.4-1.3-0.7-2.7-0.8-4.1v-3.7c0.1-1.4,0.4-2.8,0.8-4.1
				c2.1-6.8,7.5-11.4,13.8-11.8h0.4v0.8c-5.2,0.3-9.3,5.2-9.3,11.1c0,6.1,4.4,11.1,9.8,11.1h1.6c3.1,0,5.4,2.7,5.4,6.1
				S32.9,64.8,29.9,64.8z M22,31.7c-3.8,2.1-6.5,5.6-7.7,9.7c-0.4,1.3-0.6,2.5-0.8,3.9v3.6c0.1,1.3,0.4,2.6,0.8,3.8
				c2,6.4,7.2,10.9,13.2,11.3H30c2.6,0,4.7-2.4,4.7-5.4s-2.1-5.3-4.7-5.3h-1.6c-5.8,0-10.5-5.4-10.5-12C17.7,37.7,19.2,34.2,22,31.7
				z"/>
		</g>
		<g>
			<path class="st0" d="M41.3,29.8H27.4c-5.4,0.3-9.6,5.4-9.6,11.5l0,0c0,6.4,4.6,11.6,10.2,11.6c-2.8,0-5.1-2.6-5.1-5.8
				s2.3-5.8,5.1-5.8h6.5c1,0.1,1.8,1,1.8,2h1.4v-2h3.6c2.8,0,5.1-2.6,5.1-5.8S44.1,29.8,41.3,29.8z"/>
			<path class="st1" d="M28,53.3c-5.8,0-10.5-5.4-10.5-12c0-6.4,4.4-11.6,10-12h3.7h10.5c2.8,0.2,5.1,2.9,5.1,6.2s-2.4,6.2-5.4,6.2
				h-3.2v2H36v-0.4c0-0.8-0.6-1.5-1.4-1.6h-6.5c-2.6,0-4.7,2.4-4.7,5.4s2.1,5.4,4.7,5.4L28,53.3L28,53.3z M27.4,30.2
				c-5.2,0.3-9.3,5.2-9.3,11.1c-0.1,4.3,2.3,8.3,6.1,10.3c-1.1-1.2-1.8-2.9-1.8-4.5c0-3.4,2.4-6.2,5.5-6.2h6.5c1.1,0.1,2,0.9,2.1,2
				h0.8v-2h3.9c2.7,0,4.8-2.4,4.8-5.4s-2.1-5.4-4.7-5.4L27.4,30.2L27.4,30.2z"/>
		</g>
		<g>
			<path class="st10" d="M46.3,35.2v-0.1V35l0,0c0-0.1,0-0.2,0-0.2s0-0.1-0.1-0.1c0-0.1,0-0.1,0-0.2c0,0,0,0,0-0.1s0-0.2,0-0.2
				s0,0,0-0.1v-0.2c0,0,0,0,0-0.1s0-0.1-0.1-0.2s0,0,0-0.1s0-0.1-0.1-0.2v-0.1L45.9,33l0,0l-0.1-0.2v0c0-0.1-0.1-0.1-0.1-0.2v-0.1
				c-0.1-0.1-0.2-0.3-0.3-0.4l0,0l-0.1-0.2l0,0c-0.1-0.1-0.1-0.2-0.2-0.2l0,0l-0.2-0.2l0,0l-0.2-0.2l0,0l-0.2-0.2l0,0L44,30.9l0,0
				l-0.2-0.1l0,0l-0.2-0.1l0,0l-0.2-0.1h0.3l-0.2-0.1h-0.1l-0.2-0.1h-0.1L43,30.3c-0.2-0.3-0.5-0.5-0.8-0.7c-0.4-0.1-0.9-0.1-1.4,0
				c-0.9,0.1-0.8,0-1.8,0c-0.4,0-0.9,0.1-1.3,0.2h-6.5c2.7,0.1,4.9,2.7,4.9,5.8v23.1c0,3.2,2.3,5.8,5.1,5.8s5.1-2.6,5.1-5.8v-23
				C46.3,35.6,46.3,35.3,46.3,35.2z"/>
			<path class="st1" d="M46.6,34.9c0-0.1,0-0.2,0-0.3v-0.3L46.5,34l-0.2-0.6c0-0.1,0-0.1-0.1-0.3c0-0.1-0.1-0.2-0.1-0.3l-0.3-0.6
				l-0.3-0.5l-0.2-0.1l-0.2-0.3l-0.2-0.2l-0.2-0.2l-0.2-0.2l-0.2-0.2l-0.2-0.2l-0.7-0.4c-0.2-0.1-0.5-0.1-0.8-0.1
				c-0.4-0.1-0.8-0.1-1-0.1c-0.9-0.1-1.7-0.1-2.6-0.1c0,0,0.1,0.1,0.6,0.2c0.7,0,1.3,0,2,0.2c0.4,0.1,0.7,0.2,1.1,0.4h0.1l0.1,0.1
				l0.2,0.1l0.8,0.5l0.2,0.2l0.2,0.2l0.2,0.2l0.2,0.2l0.2,0.2l0.1,0.2c0.1,0.2,0.2,0.3,0.3,0.5l0.2,0.5c0,0.1,0,0.1,0.1,0.3l0.1,0.2
				l0.2,1c0,0.1,0,0.2,0,0.3v0.3c0,0.1,0,0.2,0,0.2v23.1c0,3-2.1,5.4-4.7,5.4s-4.7-2.4-4.7-5.4v-23c0.1-2.1-1-4.1-2.7-5.4l5.9-0.3
				c-0.2-0.1-0.4-0.2-0.6-0.2c-0.7-0.3-1.5-0.3-2.3-0.2h-5.6v0.8c2.7,0.3,4.7,2.7,4.5,5.4v23c0,3.4,2.4,6.2,5.4,6.2s5.4-2.8,5.4-6.2
				v-23c0-0.1,0-0.2,0-0.4L46.6,34.9z"/>
		</g>
	</g>
	<g id="_Alphabet_h_">
		<g>
			<path class="st3" d="M283.8,115.6V86.2l0,0c0-3.2-2.3-5.8-5.1-5.8s-5.1,2.6-5.1,5.8l0,0v29.4H283.8z"/>
			<path class="st1" d="M284.2,116h-10.9V86.2c0-3.4,2.5-6.2,5.5-6.2s5.5,2.8,5.5,6.2L284.2,116z M274.1,115.2h9.5v-29
				c0-3-2.1-5.4-4.7-5.4s-4.7,2.4-4.7,5.4L274.1,115.2L274.1,115.2z"/>
		</g>
		<g>
			<path class="st7" d="M294,100.1c5.7,2.3,9.8,8.2,10.2,15.3v12.7c0,3.2-2.4,5.8-5.2,5.8s-5-2.6-5-5.8l0,0v-11.7l0,0
				c0-6.4-4.5-11.6-10.2-11.6l0,0c-5.4,0-9.9,4.9-10.2,11v-0.4c0.4-7.1,4.5-13.1,10.2-15.3c1.1-0.4,2.3-0.7,3.5-0.9h3.2
				C291.7,99.4,292.9,99.7,294,100.1z"/>
			<path class="st1" d="M299,134.3c-3,0-5.4-2.7-5.4-6.2v-11.7c0-6.1-4.4-11.1-9.8-11.1c-5.2,0-9.5,4.6-9.8,10.6h-0.7v-0.4
				c0.4-7.2,4.5-13.3,10.4-15.7c1.1-0.5,2.3-0.8,3.6-0.9h3.2c1.2,0.1,2.4,0.4,3.6,0.9c6,2.4,10,8.5,10.4,15.7v12.8
				C304.6,131.6,302.1,134.3,299,134.3z M283.8,104.5c5.8,0,10.5,5.4,10.5,12v11.7c0,3,2,5.4,4.6,5.4c2.8-0.2,5-2.6,4.8-5.4v-12.7
				c-0.4-6.8-4.2-12.7-9.9-15c-1.1-0.4-2.2-0.7-3.4-0.9h-3.2c-1.2,0.1-2.3,0.4-3.4,0.9c-3.9,1.7-7,4.8-8.5,8.8
				C277.2,106.4,280.4,104.6,283.8,104.5L283.8,104.5z"/>
		</g>
		<g>
			<path class="st6" d="M283.8,104.5c5.6,0,10.2,5.2,10.2,11.6c0-3.2-2.3-5.8-5.1-5.8s-5.1,2.6-5.1,5.8v12.1l0,0
				c0,3.2-2.3,5.8-5.1,5.8s-5.1-2.6-5.1-5.8l0,0v-12.7C274,109.4,278.4,104.5,283.8,104.5L283.8,104.5z"/>
			<path class="st1" d="M278.8,134.3c-3,0-5.5-2.8-5.5-6.2v-12.7c0.3-6.4,4.9-11.4,10.5-11.4c5.8,0,10.5,5.4,10.5,12h-0.6
				c0-3-2.1-5.4-4.7-5.4s-4.7,2.4-4.7,5.4v12.1C284.2,131.6,281.8,134.3,278.8,134.3z M283.8,104.9c-5.2,0-9.5,4.6-9.8,10.6v12.7
				c0,3,2.1,5.4,4.7,5.4s4.7-2.4,4.7-5.4v-12.1c0-3.4,2.4-6.2,5.5-6.2c1.6,0,3,0.8,4,2C291.5,107.8,287.9,104.9,283.8,104.9
				L283.8,104.9z"/>
		</g>
	</g>
	<g id="_Alphabet_r_">
		<g>
			<path class="st3" d="M370,98.9c-5.7,2.3-9.8,8.2-10.2,15.3V127c0,3.2,2.3,5.8,5.1,5.8s5.1-2.6,5.1-5.8l0,0v-11.8l0,0
				c0-6.4,4.5-11.6,10.2-11.6l0,0c5.4,0,9.9,4.9,10.2,10.9v-0.4c-0.4-7.1-4.5-13.1-10.2-15.3c-1.1-0.5-2.3-0.8-3.5-0.9h-3.2
				C372.3,98.2,371.1,98.5,370,98.9z"/>
			<path class="st1" d="M364.9,133.3c-3,0-5.5-2.8-5.5-6.2v-12.8c0.4-7.2,4.5-13.3,10.4-15.7c1.1-0.5,2.3-0.8,3.6-0.9h3.2
				c1.2,0.1,2.5,0.4,3.6,0.9c6,2.4,10,8.6,10.4,15.7v0.4h-0.7c-0.3-5.9-4.6-10.6-9.8-10.6c-5.4,0-9.8,5-9.8,11.1v1v11.1
				C370.1,130.7,367.8,133.3,364.9,133.3z M376.6,98.5h-3.2c-1.2,0.1-2.3,0.4-3.4,0.9c-5.7,2.3-9.6,8.1-9.9,15v12.8
				c0,3,2.1,5.4,4.7,5.4s4.7-2.4,4.7-5.4v-11.8c0-6.6,4.7-12,10.5-12c3.4,0.1,6.6,1.9,8.4,4.8c-1.5-4-4.6-7.1-8.5-8.8
				C378.9,98.9,377.8,98.6,376.6,98.5z"/>
		</g>
		<g>
			<path class="st6" d="M390,116.6l-0.1,0.2l0,0c-0.7,2.1-2.5,3.5-4.7,3.5c-2.6-0.2-4.8-2.2-5-4.9c0-0.3-0.1-0.6-0.1-0.9l0,0v-0.2
				l0,0c0-3.2-2.3-5.8-5.1-5.8c-2.3,0.1-4.3,1.7-4.8,4c1.1-5.1,5.1-8.9,9.9-8.9l0,0c5,0,9.1,4.1,10,9.4c0.1,0.6,0.1,1.1,0.2,1.7
				C390.3,115.5,390.2,116.1,390,116.6z"/>
			<path class="st1" d="M385.2,120.8c-2.9-0.1-5.2-2.4-5.4-5.2c0-0.3-0.1-0.6-0.1-0.9v-0.2c0-3-2.1-5.4-4.7-5.4
				c-2.1,0.1-4,1.6-4.5,3.7l-0.7-0.2c1.1-5.4,5.4-9.2,10.3-9.2c5.1,0,9.4,4.1,10.4,9.8c0.1,0.6,0.1,1.2,0.2,1.7
				c0,0.7-0.1,1.3-0.3,1.9l-0.1,0.2C389.5,119.2,387.5,120.7,385.2,120.8z M380.5,113.5v1c0,0.3,0,0.6,0.1,0.8
				c0.2,2.5,2.2,4.4,4.7,4.5c2-0.1,3.7-1.3,4.3-3.2l0,0l0.1-0.3c0.2-0.5,0.3-1.1,0.3-1.6s-0.1-1.1-0.1-1.6c-0.9-5.3-4.9-9.1-9.6-9.1
				c-3.6,0.1-6.9,2.2-8.4,5.4c0.9-0.8,2.1-1.3,3.3-1.3C377.9,108.4,380.2,110.7,380.5,113.5L380.5,113.5z"/>
		</g>
	</g>
	<g>
		<g>
			<path class="st2" d="M185.6,55c2,6.4,7.2,11.1,13.5,11.6h12.1c2.8,0,5.1-2.6,5.1-5.8S214,55,211.2,55H200
				c-5.6,0-10.2-5.2-10.2-11.5l0,0c0-6.2,4.3-11.2,9.6-11.6H199c-6.3,0.4-11.5,5.1-13.5,11.6c-0.4,1.3-0.7,2.6-0.8,4v3.6
				C185,52.4,185.2,53.7,185.6,55z"/>
			<path class="st1" d="M211.2,66.9h-12.1c-6.3-0.4-11.8-5.1-13.8-11.8c-0.4-1.3-0.7-2.6-0.8-4v-3.8c0.1-1.4,0.4-2.8,0.8-4.1
				c2.1-6.8,7.5-11.4,13.8-11.8h0.4v0.8c-5.2,0.3-9.3,5.2-9.3,11.1c0,6.2,4.4,11.2,9.8,11.2h11.5c2.8,0.2,5.1,2.9,5.1,6.2
				C216.6,64.2,214.2,66.9,211.2,66.9z M201,66.1h10.2c2.6,0,4.7-2.4,4.7-5.4s-2.1-5.4-4.7-5.4H200c-5.8,0-10.5-5.4-10.6-12
				c-0.1-3.7,1.5-7.1,4.2-9.6c-3.8,2.1-6.5,5.6-7.7,9.7c-0.4,1.3-0.6,2.6-0.8,3.9v3.6c0.1,1.3,0.4,2.6,0.8,3.8
				c2,6.4,7.2,10.9,13.2,11.3L201,66.1z"/>
		</g>
		<g>
			<path class="st4" d="M204.9,31.9L204.9,31.9z"/>
			<polygon class="st1" points="205,32.3 204.8,32.3 204.8,31.5 204.9,31.5 205.1,31.5 			"/>
		</g>
		<g>
			<path class="st0" d="M207.4,38.3c0.2-0.4,2.3-2.6,2.3-3.1c0-1.1,0.5-3.2-0.5-3.3h-9.7c-5.4,0.3-9.6,5.4-9.6,11.6l0,0
				c0,6.4,4.6,11.6,10.2,11.6c-2.8,0-5.1-2.6-5.1-5.8s2.3-5.8,5.1-5.8h1.2l6.1-4.1l0.7-2.2L207.4,38.3z"/>
			<path class="st1" d="M200,55.4c-5.8,0-10.5-5.4-10.6-12c0-6.4,4.4-11.6,10-12h9.7c0.3,0,0.5,0.1,0.7,0.4c0.3,0.8,0.4,1.7,0.3,2.5
				c0,0.3-0.1,0.6-0.1,0.9s-0.4,1-1.8,2.7l-0.1,0.2c-0.1,0.4-0.3,0.9-0.4,1.2l0.1,0.2l-6.5,4.4H200c-2.6,0-4.7,2.4-4.7,5.4
				s2.1,5.5,4.7,5.5V55.4z M199.5,32.3c-5.2,0.3-9.3,5.2-9.3,11.1c-0.1,4.3,2.3,8.4,6.1,10.3c-1.1-1.2-1.8-2.9-1.8-4.5
				c0-3.4,2.4-6.2,5.4-6.2h1.1l5.9-4l0.3-0.8l-0.2-0.1l1-1.8l0.2,0.4c0.4-0.5,0.8-1,1.1-1.5c0-0.3,0-0.6,0-0.9
				c0.1-0.6,0.1-1.3-0.1-1.9l-0.1-0.1H199.5z"/>
		</g>
		<g>
			<path class="st10" d="M211.2,31.9h-6.1c1.1,0.1,1.8,1.1,1.8,2.1c0,0.4-0.1,0.8-0.3,1.2l-0.5,0.8l-4.8,7.4l-1.1,1.8
				c-1.6,2.6-1.2,6,1.1,8.1c2,1.7,5,1.4,6.6-0.6c0.2-0.2,0.3-0.4,0.5-0.7l0,0l6.9-10.8l0.3-0.4c0.5-1,0.8-2.1,0.8-3.2
				C216.2,34.5,214,31.9,211.2,31.9z"/>
			<path class="st1" d="M204.2,54.8c-1.2,0-2.3-0.4-3.2-1.2c-1.2-1-2-2.4-2.2-4s0.1-3.2,1-4.6l5.9-9.2l0,0c0.1-0.1,0.1-0.3,0.2-0.4
				l0.2-0.4l0.1-0.1c0.2-0.3,0.3-0.6,0.3-1c0-0.8-0.6-1.6-1.4-1.7v-0.8h6.2c3,0,5.4,2.8,5.4,6.2c0,1.2-0.3,2.4-0.9,3.4l-7.1,11.2
				C207.7,53.8,206,54.8,204.2,54.8z M206.4,36.1L206.4,36.1l-6,9.4c-0.7,1.2-1,2.6-0.8,4s0.8,2.6,1.9,3.5c0.8,0.6,1.8,1,2.8,1
				c1.6,0,3-0.9,3.8-2.2l7.1-11.1c0.5-0.9,0.8-1.9,0.8-2.9c0-3-2.1-5.4-4.7-5.4h-4.6c0.4,0.5,0.6,1.1,0.6,1.7c0,0.5-0.1,1-0.4,1.4
				l0,0l-0.3,0.5L206.4,36.1z"/>
		</g>
	</g>
	<g id="_Alphabet_e_2_">
		<g>
			<path class="st3" d="M199.9,122.9c2,6.4,7.2,11.1,13.5,11.6h12.1c2.8,0,5.1-2.6,5.1-5.8s-2.3-5.8-5.1-5.8h-2.1h-9.1l0,0
				c-5.6,0-10.2-5.2-10.2-11.5l0,0c0-6.2,4.3-11.2,9.6-11.6h-0.4c-6.3,0.4-11.5,5.1-13.5,11.6c-0.4,1.3-0.7,2.6-0.8,4v3.6
				C199.3,120.3,199.5,121.6,199.9,122.9z"/>
			<path class="st1" d="M225.5,134.9h-12.1c-6.3-0.4-11.8-5.1-13.9-11.8c-0.4-1.3-0.7-2.6-0.8-4v-3.7c0.1-1.4,0.4-2.8,0.8-4.1
				c2.1-6.8,7.5-11.4,13.8-11.8h0.4v0.8c-5.2,0.3-9.3,5.2-9.3,11.1c0,6.1,4.4,11.1,9.8,11.1h11.5c2.8,0.2,5.1,2.9,5.1,6.2
				C230.9,132,228.5,134.9,225.5,134.9z M215.2,134h10.2c2.6,0,4.7-2.4,4.7-5.4s-2.1-5.4-4.7-5.4h-11.1c-5.8,0-10.5-5.4-10.5-12
				c-0.1-3.7,1.5-7.1,4.2-9.6c-3.8,2.1-6.5,5.6-7.7,9.7c-0.4,1.3-0.6,2.6-0.8,3.9v3.6c0.1,1.3,0.4,2.6,0.8,3.8
				c2,6.5,7.2,10.9,13.2,11.3L215.2,134z"/>
		</g>
		<g>
			<path class="st4" d="M219.2,99.8L219.2,99.8z"/>
			<polygon class="st1" points="219.3,100.2 219.2,100.2 219.1,99.4 219.2,99.4 219.4,99.4 			"/>
		</g>
		<g>
			<path class="st6" d="M221.8,106.2c0.2-0.4,2.2-2.6,2.2-3.1c0-1.1,0.4-3.2-0.5-3.3h-9.3c-5.2,0.3-9.3,5.4-9.3,11.5l0,0
				c0,6.4,4.4,11.6,9.8,11.6c-2.7,0-4.9-2.6-4.9-5.8s2.2-5.8,4.9-5.8h1.1l5.9-4.1l0.7-2.2L221.8,106.2z"/>
			<path class="st1" d="M214.7,123.3c-5.6,0-10.2-5.4-10.2-12c0-6.4,4.2-11.6,9.6-12h9.4c0.3,0,0.5,0.1,0.6,0.4
				c0.3,0.8,0.4,1.7,0.2,2.5c0,0.3,0,0.6,0,0.9s-0.4,1-1.8,2.7l-0.1,0.2l-0.4,1.2l0.1,0.2l-6.3,4.4h-1.1c-2.5,0-4.6,2.4-4.6,5.4
				s2,5.4,4.6,5.4V123.3z M214.2,100.2c-5,0.3-9,5.2-9,11.1c0,4.7,2.4,8.7,5.9,10.3c-1.1-1.3-1.7-2.9-1.7-4.6c0-3.4,2.4-6.2,5.3-6.2
				h1l5.7-4l0.3-0.8l-0.2-0.1l0.9-1.8l0.2,0.4c0.4-0.5,0.7-1,1-1.5c0-0.3,0-0.6,0.1-0.9c0.1-0.6,0.1-1.3-0.1-1.9l-0.1-0.1
				L214.2,100.2z"/>
		</g>
		<g>
			<path class="st7" d="M225.5,99.8h-6.1c1.1,0.1,1.8,1.1,1.8,2.1c0,0.4-0.1,0.8-0.3,1.2l-0.5,0.8l-4.7,7.4l-1.1,1.8
				c-1.6,2.6-1.2,6,1.1,8.1c2,1.7,5,1.4,6.6-0.6c0.2-0.2,0.3-0.4,0.5-0.7l0,0l6.9-10.8l0.3-0.4c0.6-1,0.8-2.1,0.8-3.2
				C230.6,102.4,228.3,99.8,225.5,99.8z"/>
			<path class="st1" d="M218.5,122.7c-1.2,0-2.3-0.4-3.2-1.2c-1.2-1-2-2.4-2.2-4s0.1-3.2,1-4.6l5.9-9.2l0,0l0.2-0.4l0.2-0.4l0.1-0.1
				c0.2-0.3,0.3-0.6,0.3-1c0-0.8-0.6-1.6-1.4-1.7v-0.8h6.1c3,0,5.5,2.8,5.5,6.2c0,1.2-0.3,2.4-0.9,3.4l-7.1,11.2
				C222,121.7,220.3,122.7,218.5,122.7z M220.7,104L220.7,104l-6,9.4c-0.7,1.2-1,2.6-0.8,4s0.8,2.6,1.9,3.5c0.8,0.6,1.8,1,2.8,1
				c1.6,0,3-0.9,3.8-2.2l7.1-11.2c0.5-0.9,0.8-1.9,0.8-2.9c0-3-2.1-5.4-4.7-5.4H221c0.7,0.9,0.8,2.1,0.2,3.1l0,0
				c-0.1,0.1-0.1,0.2-0.3,0.5L220.7,104z"/>
		</g>
	</g>
	<g id="_Alphabet_t_2">
		<g>
			<path class="st8" d="M257.3,122.6h-3.4c-1-0.1-1.8-1-1.8-2h-1.5v2H247c-2.8,0-5.1,2.6-5.1,5.8s2.3,5.8,5.1,5.8h10.3
				c2.8,0,5-2.6,5-5.8C262.4,125.2,260.1,122.6,257.3,122.6z"/>
			<path class="st1" d="M257.4,134.5h-10.3c-3,0-5.5-2.8-5.5-6.2s2.4-6.2,5.5-6.2h3.2v-2h2.2v0.4c0,0.8,0.6,1.5,1.4,1.6h3.8
				c2.9,0.2,5.1,2.9,5.1,6.2C262.7,131.6,260.3,134.5,257.4,134.5L257.4,134.5z M247,123c-2.6,0-4.7,2.4-4.7,5.4s2.1,5.4,4.7,5.4
				h10.2l0,0h0.1c2.6,0,4.7-2.4,4.7-5.4c0.1-2.5-1.5-4.7-3.9-5.3l-0.9-0.1h-3.4c-1.1-0.1-2-0.9-2.1-2h-0.8v2H247z"/>
		</g>
		<g>
			<path class="st6" d="M252.1,128.3v-42h-10.2v42.3c0,0,0,0,0,0.1s0,0.1,0,0.2l0,0c0,0.1,0,0.2,0,0.3v0.1c0,0.1,0,0.1,0,0.2l0,0
				c0,0.1,0,0.2,0,0.2s0,0,0,0.1s0,0.1,0,0.2c0,0,0,0,0,0.1s0,0.2,0.1,0.2c0,0,0,0,0,0.1s0,0.1,0.1,0.2c0,0,0,0,0,0.1l0.1,0.2l0,0
				l0.1,0.2v0.1c0,0.1,0.1,0.1,0.1,0.2l0,0c0,0,0,0,0,0.1c0.1,0.1,0.2,0.3,0.3,0.4l0,0l0.1,0.2l0,0l0.2,0.2l0,0l0.2,0.2l0,0l0.2,0.2
				l0,0l0.2,0.2l0,0l0.2,0.1l0,0l0.2,0.1l0,0c0,0,0.1,0.1,0.2,0.1l0,0l0.2,0.1h0.1l0.2,0.1h0.1l0.2,0.1h0.1l0.2,0.1c0,0,0,0,0.1,0
				l0.2,0.1h0.1h0.2h0.1h0.2h0.1h0.2h0.1h10.1C254.3,134,252.1,131.4,252.1,128.3z"/>
			<path class="st1" d="M247,134.5h-0.3h-0.3l-0.4-0.3v-0.6l0,0l0.6,0.1h7.8c-1.7-1.2-2.8-3.2-2.7-5.4V86.6h-9.5v42.2
				c0,0,0,0.1,0,0.2v0.3c0,0.1,0,0.2,0.1,0.3c0.1,0.1,0,0.2,0,0.2l0.4,1l0.1,0.2l0.1,0.1c0.1,0.1,0.1,0.2,0.2,0.4l0.1,0.2l0.1,0.2
				l0,0l0.2,0.2l0.2,0.2l0.2,0.2l0.2,0.2l0.2,0.2l0.2,0.1l0.4,0.2h0.1l0,0l0.3,0.2h0.1l0,0l0.3,0.1l0.1,0.4v0.3h-0.3l-0.3-0.1
				l-1-0.5l-0.2-0.2l-0.2-0.2l-0.2-0.2l-0.2-0.2c-0.1-0.1-0.1-0.1-0.2-0.2l-0.2-0.2v-0.1c-0.1-0.1-0.1-0.2-0.2-0.3l-0.1-0.2
				c0,0,0,0,0-0.1l0,0c-0.1-0.1-0.2-0.2-0.2-0.4l-0.1-0.1c0-0.1-0.1-0.1-0.1-0.2l-0.4-1.1c0-0.1,0-0.2-0.1-0.2l-0.1-0.3V129
				c0-0.1,0-0.2,0-0.3v-0.6V85.8h10.9v42.5c0,2.9,2,5.2,4.5,5.4v0.8L247,134.5L247,134.5z"/>
		</g>
		<g>
			<path class="st7" d="M257.3,92.5h-3.4c-1-0.1-1.8-1-1.8-2h-1.5v2H247c-2.8,0-5.1,2.6-5.1,5.8s2.3,5.8,5.1,5.8h10.3
				c2.8,0,5-2.6,5-5.8C262.4,95.1,260.1,92.5,257.3,92.5z"/>
			<path class="st1" d="M257.4,104.5h-10.7c-2.8-0.2-5.1-2.9-5.1-6.2c0-3.3,2.4-6.2,5.5-6.2h3.2v-2h2.2v0.4
				c-0.1,0.8,0.6,1.6,1.4,1.6h3.8c2.9,0.2,5.1,2.9,5.1,6.2S260.3,104.5,257.4,104.5L257.4,104.5z M247.4,103.6h9.9h0.1l0,0
				c2.6,0,4.7-2.4,4.7-5.4c0-2.9-2-5.2-4.5-5.4H254c-1.1-0.1-2-0.9-2.1-2h-0.8v2h-3.9c-2.6,0-4.7,2.4-4.7,5.4s2.1,5.4,4.7,5.4H247.4
				z"/>
		</g>
		<g>
			<path class="st3" d="M252.1,98.3v-12c0-3.2-2.3-5.8-5.1-5.8s-5.1,2.6-5.1,5.8v12.3c0,0,0,0,0,0.1s0,0.1,0,0.2l0,0
				c0,0.1,0,0.2,0,0.2v0.1c0,0.1,0,0.1,0,0.2l0,0c0,0.1,0,0.2,0,0.2s0,0,0,0.1s0,0.1,0,0.2c0,0,0,0,0,0.1c0,0,0,0.2,0.1,0.2
				c0,0.1,0,0,0,0.1s0,0.1,0.1,0.2c0,0,0,0,0,0.1l0.1,0.2l0,0c0,0.1,0.1,0.1,0.1,0.2v0.1c0,0.1,0.1,0.1,0.1,0.2l0,0v0.1
				c0.1,0.1,0.2,0.3,0.3,0.4l0,0l0.1,0.1l0,0c0,0,0.1,0.2,0.2,0.2l0,0c0,0.1,0.1,0.1,0.2,0.2l0,0l0.2,0.2l0,0l0.2,0.2l0,0l0.2,0.1
				l0,0l0.2,0.1l0,0c0.1,0,0.1,0.1,0.2,0.1l0,0l0.2,0.1h0.1l0.2,0.1h0.1l0.2,0.1h0.1l0.2,0.1c0,0,0,0,0.1,0l0.2,0.1h0.1h0.2h0.1h0.2
				h0.1h0.2h0.1h0.2h0.1h0.3l10.2,0.2C254.5,103.9,252.1,101.4,252.1,98.3z"/>
			<path class="st1" d="M247,104.5h-0.3h-0.2h-0.1h-0.2l-0.4-0.1h-0.2l-0.3-0.1h-0.1l-0.1-0.1H245c-0.1,0-0.1,0-0.2-0.1l-0.5-0.3
				l-0.2-0.2l-0.3-0.2c-0.1,0-0.1-0.1-0.2-0.1l-0.2-0.2c-0.1-0.1-0.1-0.1-0.2-0.2l0,0l-0.2-0.2l-0.2-0.3l-0.1-0.1c0,0,0-0.1-0.1-0.1
				l0,0c-0.1-0.1-0.2-0.3-0.3-0.5l-0.1-0.1c0-0.1-0.1-0.1-0.1-0.2l-0.4-1.1c0-0.1,0-0.2-0.1-0.2l0.1-0.3v-0.4c0-0.1,0-0.2,0-0.3
				v-0.6v-12c0-3.4,2.4-6.2,5.5-6.2s5.5,2.8,5.5,6.2v12c0,2.9,2,5.2,4.5,5.4l-0.1,0.4L247,104.5z M246,103.5h0.2h0.2h0.1h0.2h7.7
				c-1.7-1.2-2.8-3.2-2.7-5.4v-12c0-3-2.1-5.4-4.7-5.4s-4.7,2.4-4.7,5.4v12.7c0,0,0,0.1,0,0.2v0.3c0,0.1,0,0.2,0.1,0.3
				c0.1,0.1,0,0.2,0,0.2v0.1l0,0l0.3,0.9l0.1,0.2l0.1,0.1c0.1,0.2,0.2,0.3,0.2,0.4l0.1,0.2l0.2,0.2l0.2,0.2l0,0l0.1,0.1l0.2,0.2
				c0.1,0.1,0.1,0.1,0.2,0.1l0.2,0.2l0.2,0.1l0.9,0.5h0.1h0.1h0.1h0.1L246,103.5z"/>
		</g>
	</g>
	<g id="_Alphabet_e_">
		<g>
			<path class="st3" d="M316.2,122c2,6.4,7.2,11.1,13.5,11.6h12.1c2.8,0,5.1-2.6,5.1-5.8s-2.3-5.8-5.1-5.8h-11.1
				c-5.6,0-10.2-5.2-10.2-11.6l0,0c0-6.2,4.3-11.2,9.6-11.5h-0.4c-6.3,0.4-11.5,5.1-13.5,11.5c-0.4,1.3-0.7,2.6-0.8,4v3.6
				C315.6,119.4,315.8,120.7,316.2,122z"/>
			<path class="st1" d="M341.8,133.9h-12.1c-6.3-0.4-11.8-5.1-13.9-11.8c-0.4-1.3-0.7-2.6-0.8-4v-3.7c0.1-1.4,0.4-2.8,0.8-4.1
				c2.1-6.8,7.5-11.4,13.8-11.8h0.4v0.8c-5.2,0.3-9.3,5.2-9.3,11.1c0,6.1,4.4,11.1,9.8,11.1h11.6c2.8,0.2,5.1,2.9,5.1,6.2
				C347.3,131.1,344.8,133.9,341.8,133.9z M331.6,133.1h10.2c2.6,0,4.7-2.4,4.7-5.4s-2.1-5.4-4.7-5.4h-11.1c-5.8,0-10.5-5.4-10.5-12
				c-0.1-3.7,1.5-7.1,4.2-9.6c-3.8,2.1-6.5,5.6-7.7,9.7c-0.4,1.3-0.6,2.5-0.8,3.9v3.6c0.1,1.3,0.4,2.6,0.8,3.8
				c2,6.4,7.2,10.9,13.2,11.3L331.6,133.1z"/>
		</g>
		<g>
			<path class="st4" d="M335.6,98.9L335.6,98.9z"/>
			<polygon class="st1" points="335.7,99.3 335.5,99.3 335.5,98.4 335.6,98.4 335.7,98.4 			"/>
		</g>
		<g>
			<path class="st6" d="M338.1,105.3c0.2-0.4,2.3-2.6,2.3-3.1c0-1.1,0.5-3.2-0.5-3.3h-9.7c-5.4,0.3-9.6,5.4-9.6,11.5l0,0
				c0,6.4,4.6,11.5,10.2,11.5c-2.8,0-5.1-2.6-5.1-5.8c0-3.2,2.3-5.8,5.1-5.8h1.2l6.1-4.1l0.7-2.2L338.1,105.3z"/>
			<path class="st1" d="M330.7,122.4c-5.8,0-10.5-5.4-10.5-12c0-6.4,4.4-11.6,10-12h9.7c0.3,0,0.5,0.1,0.7,0.4
				c0.3,0.8,0.4,1.7,0.2,2.5c0,0.3,0,0.6,0,0.9s-0.4,1-1.8,2.7l-0.1,0.2c-0.1,0.4-0.3,0.9-0.4,1.2l0.1,0.2l-6.5,4.4h-1.4
				c-2.6,0-4.7,2.4-4.7,5.4s2.1,5.4,4.7,5.4V122.4z M330.1,99.3c-5.2,0.3-9.3,5.2-9.3,11.1c-0.1,4.3,2.3,8.4,6.1,10.3
				c-1.1-1.2-1.8-2.9-1.8-4.5c0-3.4,2.4-6.2,5.4-6.2h1.1l5.9-4l0.3-0.8l-0.2-0.1l1-1.8l0.2,0.4c0.4-0.5,0.8-1,1.1-1.5
				c0-0.2,0-0.6,0-0.9c0.1-0.6,0.1-1.3-0.1-1.9l-0.1-0.1H330.1z"/>
		</g>
		<g>
			<path class="st7" d="M341.8,98.9h-6.1c1.1,0.1,1.8,1.1,1.8,2.1c0,0.4-0.1,0.8-0.3,1.2l-0.5,0.8l-4.7,7.4l-1.1,1.8
				c-1.6,2.6-1.2,6,1.1,8.1c2,1.7,5,1.4,6.6-0.6c0.2-0.2,0.3-0.5,0.5-0.7l0,0l6.9-10.8l0.3-0.4c0.6-1,0.8-2.1,0.8-3.2
				C346.9,101.4,344.6,98.9,341.8,98.9z"/>
			<path class="st1" d="M334.8,121.8c-1.2,0-2.3-0.4-3.2-1.2c-1.2-1-2-2.4-2.2-4s0.1-3.2,1-4.6l5.9-9.2l0,0l0.2-0.4l0.2-0.4l0.1-0.1
				c0.2-0.3,0.3-0.6,0.3-1c0-0.8-0.6-1.6-1.4-1.7v-0.8h6.1c3,0,5.5,2.8,5.5,6.2c0,1.2-0.3,2.4-0.9,3.4l-7.2,11.2
				C338.3,120.8,336.6,121.8,334.8,121.8z M337,103L337,103l-6,9.4c-0.7,1.2-1,2.6-0.8,4s0.9,2.6,1.9,3.5c0.8,0.6,1.8,1,2.8,1
				c1.6,0,3-0.9,3.8-2.2l7.1-11.1c0.5-0.9,0.8-1.9,0.8-2.9c0-3-2.1-5.4-4.7-5.4h-4.6c0.7,0.9,0.8,2.1,0.2,3.1l0,0l-0.3,0.5L337,103z
				"/>
		</g>
	</g>
	<path id="_flower_pink_" class="st11" d="M133.2,44.1c-1.9-1.7-8.5-2.4-13.7-1.5c4.6-2.6,9.2-7.4,9.6-9.9c0.8-5.6-7.3-1.9-7.7-2.2
		s0.1-9.2-4.9-6.4c-2.2,1.2-4.9,7.3-5.6,12.5c-1.1-5.1-4.1-11-6.4-12.1c-5.1-2.5-4.1,6.3-4.5,6.7c-0.4,0.3-8.7-2.9-7.6,2.6
		c0.5,2.5,5.4,6.9,10.2,9.2c-5.2-0.6-11.8,0.5-13.6,2.4c-3.9,4,4.8,5.8,5,6.3s-5.4,7.4,0.2,8c2.5,0.3,8.3-3,11.9-6.8
		c-2.2,4.8-3.1,11.4-1.9,13.7c2.6,5,7-2.8,7.6-2.8s5.3,7.4,7.7,2.3c1.1-2.3-0.3-8.8-2.8-13.5c3.9,3.5,9.9,6.5,12.4,6.1
		c5.5-1-0.4-7.5-0.3-8C128.8,50.2,137.4,47.9,133.2,44.1z"/>
	<ellipse id="_green_circle_" class="st12" cx="91.7" cy="23" rx="2.5" ry="2.7"/>
	<circle id="_pink_circle_" class="st13" cx="86.4" cy="17.3" r="1.3"/>
	<circle id="_grey_circle_" class="st14" cx="110.2" cy="44.9" r="4.5"/>
	<g id="_leaf_green_">
		<g>
			
				<linearGradient id="SVGID_1_" gradientUnits="userSpaceOnUse" x1="121.9209" y1="-660.1112" x2="121.9209" y2="-660.1112" gradientTransform="matrix(1 0 0 -1 2.304077e-03 -572.4224)">
				<stop  offset="0" style="stop-color:#71AB49"/>
				<stop  offset="1" style="stop-color:#40732B"/>
			</linearGradient>
			<path class="st15" d="M121.9,87.7L121.9,87.7L121.9,87.7z"/>
			<path class="st16" d="M134.3,109c0.3-2.1,0.4-7.2-4.4-8.4c0,0-1.1-4.3-4.2-6.5c-1.9-1.7-3.2-3.9-3.7-6.3v0.1c0-0.1,0-0.1,0-0.1
				c-0.5,2.4-1.8,4.7-3.7,6.3c-3,2.2-4.2,6.5-4.2,6.5c-4.8,1.3-4.7,6.3-4.4,8.4c-1.4-4-11.1-4.4-11.1-4.4c5.8,4.8-0.5,8.3,6.4,18.3
				c6.6,9.5,25,13,34,0c6.9-9.9,0.6-13.5,6.4-18.3C145.4,104.6,135.6,104.9,134.3,109z"/>
		</g>
		<g>
			<path class="st17" d="M122.3,102.2l0.1,1.6c0,1,0.1,2.5,0.2,4.2s0.1,3.8,0.2,6c0,2.2,0.1,4.5,0.1,6.9c0,2.3,0,4.7-0.1,6.9
				s-0.1,4.2-0.2,6c0,1.8-0.2,3.2-0.2,4.2l-0.1,1.6l-0.1-1.6c0-1-0.1-2.5-0.2-4.2s-0.1-3.8-0.2-6c0-2.2,0-4.5-0.1-6.9
				c-0.1-2.3,0-4.7,0.1-6.9s0.1-4.2,0.2-6c0-1.8,0.2-3.2,0.2-4.2S122.3,102.2,122.3,102.2z"/>
			<path class="st17" d="M116.3,102.2c0,0,0.4,0.3,1,0.8s1.3,1.2,1.9,1.9c0.7,0.7,1.3,1.5,1.8,2.1s0.7,1,0.7,1s-0.4-0.3-1-0.8
				s-1.3-1.2-1.9-1.9c-0.7-0.7-1.3-1.5-1.8-2.1C116.6,102.6,116.3,102.2,116.3,102.2z"/>
			<path class="st17" d="M112.2,109.5c0,0,0.7,0.4,1.7,1.2s2.2,1.8,3.4,2.9s2.3,2.3,3.1,3.2s1.3,1.6,1.3,1.6s-0.7-0.5-1.7-1.2
				s-2.2-1.8-3.4-2.9s-2.3-2.3-3.1-3.2S112.2,109.5,112.2,109.5z"/>
			<path class="st17" d="M127.6,102.2c0,0-0.3,0.4-0.7,1c-0.5,0.6-1.1,1.4-1.8,2.1s-1.4,1.4-1.9,1.9s-1,0.8-1,0.8s0.3-0.4,0.7-1
				s1.1-1.4,1.8-2.1s1.4-1.4,1.9-1.9S127.6,102.2,127.6,102.2z"/>
			<path class="st17" d="M131.7,109.5c0,0-0.5,0.7-1.3,1.6s-1.9,2.1-3.1,3.2c-1.2,1.1-2.4,2.2-3.4,2.9s-1.7,1.2-1.7,1.2
				s0.5-0.7,1.3-1.6s1.9-2.1,3.1-3.2c1.2-1.1,2.4-2.2,3.4-2.9S131.7,109.5,131.7,109.5z"/>
		</g>
	</g>
	<circle id="_yellow_circle_" class="st18" cx="141.7" cy="92.3" r="4.2"/>
	<circle id="_flower_button_" class="st19" cx="149.2" cy="84.3" r="2.7"/>
	<g id="_mini_flower_green_">
		<path class="st20" d="M384.1,134.5C372.2,128.3,371.9,139.9,384.1,134.5z"/>
		<path class="st20" d="M384.2,134.6C373,142,382.8,148,384.2,134.6z"/>
		<path class="st20" d="M384.2,134.3C383.5,120.8,373.4,126.3,384.2,134.3z"/>
		<path class="st20" d="M384.4,134.6C385.1,148.1,395.2,142.6,384.4,134.6z"/>
		<path class="st20" d="M384.4,134.3C395.6,126.9,385.8,120.9,384.4,134.3z"/>
		<path class="st20" d="M384.5,134.5C396.4,140.6,396.7,129,384.5,134.5z"/>
	</g>
	<path id="_flower_growing_on_e_" class="st21" d="M213.3,13.3c0,0-4.5-0.8-6,1.7c-1.5,2.4-3.9,6.8-3.9,6.8l-0.1,0.1v-0.1
		c0,0,2.5-6.4,2.8-8.4s-2.4-3.9-2.4-3.9s-3.6,2.3-3,5s2.2,7.2,2.2,7.2v0.1c-0.1-0.2-2.1-4.4-3.5-6.7c-1.4-2.4-5.8-1.8-5.8-1.8
		s-0.6,3.2,1,4.5c2.6,1.6,5.3,3.1,8.1,4.4l0.1,0.1l0,0c0,0-3.5-0.3-5.5-0.3s-3.1,2.6-3.1,2.6s1.8,1.4,3.2,0.9
		c1.8-0.9,3.6-1.8,5.3-2.9l0.4,10.3l0.3-10.2c1.7,1.1,3.5,2.1,5.3,2.9c1.4,0.5,3.2-0.9,3.2-0.9s-1.1-2.7-3.1-2.6
		c-1.8,0-4.8,0.3-5.4,0.3l0,0c2.9-1.3,5.8-2.7,8.6-4.3C213.9,16.6,213.3,13.3,213.3,13.3z M203.2,22.2L203.2,22.2L203.2,22.2z
		 M203.2,22.1C203.2,22.1,203.2,22.2,203.2,22.1L203.2,22.1L203.2,22.1z"/>
</g>
</svg>
